<?xml version="1.0" encoding="UTF-8"?>
<svg version="1.1" xmlns="http://www.w3.org/2000/svg" width="512" height="512">
<path d="M0 0 C33.99 0 67.98 0 103 0 C103.99 7.59 104.98 15.18 106 23 C109.2983291 36.42343237 113.11734056 48.10976461 120 60 C120.34933594 60.60924316 120.69867188 61.21848633 121.05859375 61.84619141 C126.35344733 70.93035641 132.67377808 78.49371733 140 86 C140.58136719 86.64324219 141.16273438 87.28648437 141.76171875 87.94921875 C162.05806863 109.88154646 192.84943942 119.11038116 221.69140625 121.27734375 C253.87697954 122.22733116 284.25036268 109.92043131 307.66796875 88.19921875 C308.43753906 87.47347656 309.20710938 86.74773437 310 86 C310.67675781 85.38769531 311.35351562 84.77539062 312.05078125 84.14453125 C328.02041198 69.13499856 338.33335775 47.35595624 343.1875 26.25 C343.34250977 25.58436035 343.49751953 24.9187207 343.65722656 24.23291016 C345.38068345 16.18823395 346.02863318 8.25661794 347 0 C380.99 0 414.98 0 450 0 C450 10.23 450 20.46 450 31 C437.60681145 36.63326752 437.60681145 36.63326752 432.74609375 38.45703125 C431.18858398 39.04194336 431.18858398 39.04194336 429.59960938 39.63867188 C428.55611328 40.02603516 427.51261719 40.41339844 426.4375 40.8125 C425.35919922 41.21919922 424.28089844 41.62589844 423.16992188 42.04492188 C415.25825893 45 415.25825893 45 413 45 C412.89187988 45.61093506 412.78375977 46.22187012 412.67236328 46.85131836 C411.53089298 52.95532203 409.95638945 58.71584772 407.875 64.5625 C407.57223145 65.41875977 407.26946289 66.27501953 406.95751953 67.15722656 C403.28978918 77.28322967 399.24512056 87.78594334 392.8125 96.5 C390.53048205 99.95331514 390.53048205 99.95331514 391.99609375 103.85546875 C394.60305764 110.96221295 397.90671323 117.80584514 401.11328125 124.65698242 C401.94518437 126.43973371 402.76188717 128.22955338 403.578125 130.01953125 C404.31144043 131.59891479 404.31144043 131.59891479 405.05957031 133.21020508 C406.09413969 136.2792664 406.12042537 137.05469883 405 140 C403.36360168 142.04426575 403.36360168 142.04426575 401.21801758 144.23364258 C400.41660843 145.05741898 399.61519928 145.88119537 398.789505 146.72993469 C397.91666367 147.60925156 397.04382233 148.48856842 396.14453125 149.39453125 C395.2501384 150.30128098 394.35574554 151.2080307 393.43424988 152.14225769 C391.53913965 154.05694587 389.64079758 155.96773799 387.73706055 157.8737793 C385.29980975 160.31632095 382.88643796 162.78108029 380.4781847 165.25217152 C378.17423829 167.60680899 375.84533496 169.93651195 373.51953125 172.26953125 C372.65681107 173.15896927 371.79409088 174.04840729 370.90522766 174.96479797 C370.08805771 175.77281357 369.27088776 176.58082916 368.42895508 177.41333008 C367.71693436 178.13184647 367.00491364 178.85036285 366.27131653 179.59065247 C364 181 364 181 360.93865967 180.81356812 C357.36862286 179.8252032 354.1266985 178.38459325 350.80859375 176.76953125 C349.43842858 176.12506066 348.06797716 175.48119834 346.69726562 174.83789062 C344.55864955 173.82436936 342.42303069 172.80550658 340.29223633 171.77563477 C338.22142959 170.77863251 336.14121706 169.80405424 334.05859375 168.83203125 C333.10840614 168.36190361 333.10840614 168.36190361 332.13902283 167.88227844 C329.16132172 166.50857099 327.50097101 165.87030153 324.27563477 166.70532227 C323.52467529 167.13256592 322.77371582 167.55980957 322 168 C320.8553125 168.62132812 319.710625 169.24265625 318.53125 169.8828125 C317.88816895 170.24165527 317.24508789 170.60049805 316.58251953 170.97021484 C303.41514033 178.27170413 285.37196574 188 270 188 C269.84289551 188.56452881 269.68579102 189.12905762 269.52392578 189.71069336 C267.37815954 197.15684472 264.67901526 204.34236273 261.875 211.5625 C261.41996094 212.74908203 260.96492188 213.93566406 260.49609375 215.15820312 C257.13194444 223.86805556 257.13194444 223.86805556 256 225 C254.06693502 225.09396057 252.13041162 225.11743517 250.19506836 225.11352539 C248.95385727 225.11344986 247.71264618 225.11337433 246.43382263 225.11329651 C245.0691626 225.10818911 243.70450298 225.1029731 242.33984375 225.09765625 C240.95121817 225.095792 239.56259193 225.09436813 238.17396545 225.09336853 C234.51278885 225.08954387 230.8516517 225.07971403 227.19049072 225.06866455 C223.45707737 225.05844932 219.72365766 225.05387067 215.99023438 225.04882812 C208.66013823 225.03809171 201.33007464 225.02101591 194 225 C188.70382158 213.50522551 188.70382158 213.50522551 186.54296875 207.74609375 C186.15302734 206.70775391 185.76308594 205.66941406 185.36132812 204.59960938 C184.7802832 203.03436523 184.7802832 203.03436523 184.1875 201.4375 C183.78080078 200.35919922 183.37410156 199.28089844 182.95507812 198.16992188 C180 190.25825893 180 190.25825893 180 188 C179.38906494 187.89187988 178.77812988 187.78375977 178.14868164 187.67236328 C172.04467797 186.53089298 166.28415228 184.95638945 160.4375 182.875 C159.15311035 182.42084717 159.15311035 182.42084717 157.84277344 181.95751953 C147.71677033 178.28978918 137.21405666 174.24512056 128.5 167.8125 C125.04668486 165.53048205 125.04668486 165.53048205 121.14453125 166.99609375 C114.03778705 169.60305764 107.19415486 172.90671323 100.34301758 176.11328125 C98.56026629 176.94518437 96.77044662 177.76188717 94.98046875 178.578125 C93.92754639 179.06700195 92.87462402 179.55587891 91.78979492 180.05957031 C88.72069763 181.09415181 87.94506591 181.12173331 85 180 C82.95573425 178.35687256 82.95573425 178.35687256 80.76635742 176.20214844 C79.94258102 175.3975116 79.11880463 174.59287476 78.27006531 173.76385498 C77.39074844 172.88787659 76.51143158 172.01189819 75.60546875 171.109375 C74.69871902 170.21261047 73.7919693 169.31584595 72.85774231 168.39190674 C70.94314943 166.49250715 69.03230929 164.58999629 67.1262207 162.68212891 C64.68202703 160.23762978 62.21781887 157.81444671 59.74782848 155.39605331 C57.39525646 153.08482744 55.06422538 150.7520748 52.73046875 148.421875 C51.39631172 147.1200528 51.39631172 147.1200528 50.03520203 145.79193115 C49.22718643 144.97468567 48.41917084 144.15744019 47.58666992 143.31542969 C46.86815353 142.60118835 46.14963715 141.88694702 45.40934753 141.15106201 C44 139 44 139 44.18643188 136.44439697 C45.30546905 133.08220639 46.73403138 129.89352456 48.23046875 126.6875 C48.87508563 125.2685636 49.51894322 123.84928206 50.16210938 122.4296875 C51.17500718 120.20746602 52.1930244 117.98814212 53.22436523 115.77441406 C54.22155781 113.62734643 55.19624677 111.47119037 56.16796875 109.3125 C56.48138718 108.65403076 56.7948056 107.99556152 57.11772156 107.31713867 C58.47382885 104.2638589 59.13521946 102.52007838 58.28100586 99.23461914 C57.85827393 98.49719482 57.43554199 97.75977051 57 97 C56.45085937 95.98808594 55.90171875 94.97617187 55.3359375 93.93359375 C55.02237305 93.37599365 54.70880859 92.81839355 54.38574219 92.24389648 C46.96872732 78.98822184 37 60.48377855 37 45 C36.43547119 44.84289551 35.87094238 44.68579102 35.28930664 44.52392578 C27.84315528 42.37815954 20.65763727 39.67901526 13.4375 36.875 C12.25091797 36.41996094 11.06433594 35.96492188 9.84179688 35.49609375 C1.13194444 32.13194444 1.13194444 32.13194444 0 31 C0 20.77 0 10.54 0 0 Z " fill="#000000" transform="translate(31,276)"/>
<path d="M0 0 C21.53108183 19.95947002 32.69476004 47.26913562 34.4375 76.2421875 C35.08640946 106.17313639 23.41388225 133.82378481 2.9609375 155.50390625 C-17.56771682 175.35221612 -44.32552309 185.70675878 -72.75 186.5 C-98.75644501 185.77423874 -123.09340206 177.32884143 -142.75 160.125 C-143.49378906 159.52429688 -144.23757812 158.92359375 -145.00390625 158.3046875 C-163.42123729 142.99428013 -175.5438405 118.69235422 -178.75 95.125 C-178.85957031 94.33351563 -178.96914062 93.54203125 -179.08203125 92.7265625 C-182.79161685 61.36819887 -173.06402402 33.09518585 -153.7890625 8.63671875 C-135.76005138 -12.66694949 -109.09520641 -24.96295388 -81.640625 -27.5625 C-51.1205229 -30.01391382 -23.18965727 -19.62509855 0 0 Z M-116.43652344 40.59521484 C-126.35365701 52.14554179 -131.2108859 66.54009623 -131.0234375 81.6484375 C-129.72698914 98.13185234 -122.76394227 111.74337048 -110.75 123.125 C-99.22596644 132.82944931 -85.11243885 137.74684559 -70.08984375 137.4375 C-53.19873781 135.85704564 -39.00702725 128.9036835 -27.75 116.125 C-17.64747487 102.70990137 -13.04375384 87.47755023 -15.17578125 70.79296875 C-18.12639578 54.66414943 -25.86805399 41.53949824 -38.92578125 31.7421875 C-64.1183514 15.38964496 -95.75494945 18.29857802 -116.43652344 40.59521484 Z " fill="#000000" transform="translate(328.75,196.875)"/>
<path d="M0 0 C0.99386719 0.50144531 1.98773438 1.00289062 3.01171875 1.51953125 C11.54023262 6.10151713 18.22507131 12.18668645 25 19 C25.6909375 19.6909375 26.381875 20.381875 27.09375 21.09375 C36.93798649 31.65393096 47.62862109 49.14484363 48 64 C47.31458046 67.69287264 45.92771215 70.22767919 42.99385071 72.67012024 C38.69365356 74.58028401 34.81562812 74.39476724 30.16088867 74.34057617 C29.17504791 74.34101425 28.18920715 74.34145233 27.17349243 74.34190369 C23.92144836 74.33981701 20.66992255 74.31649115 17.41796875 74.29296875 C15.16067283 74.28737238 12.90337326 74.28310248 10.64607239 74.28010559 C4.70958365 74.26866012 -1.22668432 74.23919523 -7.16308594 74.20599365 C-13.22262587 74.17528652 -19.28220153 74.16159886 -25.34179688 74.14648438 C-37.22796149 74.11432546 -49.11396237 74.06313248 -61 74 C-61.45455566 72.8641748 -61.90911133 71.72834961 -62.37744141 70.55810547 C-62.99354944 69.03602525 -63.6099382 67.51405864 -64.2265625 65.9921875 C-64.52377197 65.24735107 -64.82098145 64.50251465 -65.12719727 63.73510742 C-72.5507518 45.48842664 -85.76776368 27.04799533 -102.25 15.9375 C-103.1575 15.298125 -104.065 14.65875 -105 14 C-105 13.01 -105 12.02 -105 11 C-76.64046598 -14.00571086 -32.83527946 -17.40817769 0 0 Z " fill="#000000" transform="translate(432,164)"/>
<path d="M0 0 C1.45059053 1.12921539 2.89429035 2.26787541 4.3125 3.4375 C3.9438608 5.99046398 3.60173275 7.17368676 1.66796875 8.9375 C0.59482422 9.68 0.59482422 9.68 -0.5 10.4375 C-18.196247 23.66755133 -29.71806125 41.35277307 -37.79931641 61.68652344 C-38.15442291 62.57869568 -38.50952942 63.47086792 -38.87539673 64.39007568 C-39.14339081 65.06572571 -39.41138489 65.74137573 -39.6875 66.4375 C-52.76987678 66.50698682 -65.85220971 66.56030469 -78.93473339 66.59293652 C-85.00937095 66.60859753 -91.08388233 66.62984405 -97.15844727 66.66381836 C-103.01988784 66.69639582 -108.88120698 66.71434973 -114.74273109 66.72213173 C-116.97986068 66.7276781 -119.21698357 66.73850868 -121.45406151 66.75469017 C-124.58565043 66.77644263 -127.71673645 66.77946779 -130.84838867 66.77807617 C-131.77483688 66.788862 -132.7012851 66.79964783 -133.6558075 66.8107605 C-138.47849164 66.78754508 -141.80861362 66.63778517 -145.6875 63.4375 C-148.15060985 59.89677959 -148.79971055 57.94704948 -148.48046875 53.65234375 C-144.29431684 31.8573464 -129.13278648 11.15755414 -111.25 -1.375 C-77.25412119 -23.81228002 -33.27155949 -24.04606931 0 0 Z " fill="#000000" transform="translate(180.6875,171.5625)"/>
<path d="M0 0 C12.14227761 9.58501165 20.05197081 20.43981621 22 36 C23.13510149 48.40646016 19.47741681 60.68954668 12.02734375 70.6328125 C7.04822711 76.51642475 1.91648909 80.62610288 -5 84 C-5.78375 84.4125 -6.5675 84.825 -7.375 85.25 C-17.50974276 89.81063424 -31.62700537 89.93414918 -42.125 86.375 C-43.77540173 85.63775158 -45.40254252 84.84586683 -47 84 C-47.86882812 83.55269531 -48.73765625 83.10539062 -49.6328125 82.64453125 C-61.16590636 76.22386855 -68.71387776 66.71240685 -72.4765625 54.0078125 C-76.11338574 40.05760991 -73.66588478 27.02592527 -66.6953125 14.5703125 C-60.08061899 4.54158362 -49.88352705 -3.40047846 -38 -6 C-36.84371094 -6.27070312 -36.84371094 -6.27070312 -35.6640625 -6.546875 C-23.56718647 -8.60440817 -10.35421164 -6.87630946 0 0 Z " fill="#000000" transform="translate(150,56)"/>
<path d="M0 0 C9.93769854 7.74670988 16.3460615 20.04317073 18 32.4375 C19.10281557 45.26498635 15.76360768 57.74508104 8.02734375 68.0703125 C3.04822711 73.95392475 -2.08351091 78.06360288 -9 81.4375 C-9.78375 81.85 -10.5675 82.2625 -11.375 82.6875 C-21.50974276 87.24813424 -35.62700537 87.37164918 -46.125 83.8125 C-47.77337502 83.07073124 -49.40043569 82.27937595 -51 81.4375 C-51.845625 81.025 -52.69125 80.6125 -53.5625 80.1875 C-64.77267457 74.17228438 -72.04878951 64.44645833 -75.96484375 52.4921875 C-79.57551412 39.48046294 -78.51683187 26.94310755 -72.4375 14.75 C-65.32170523 2.68485292 -55.00513673 -4.22745442 -42 -8.5625 C-27.03459935 -12.19047591 -12.50224181 -8.44811679 0 0 Z " fill="#000000" transform="translate(418,58.5625)"/>
<path d="M0 0 C11.25540135 7.72668093 19.4020029 17.78934942 22.453125 31.359375 C24.57578478 45.12383896 22.19544371 58.72347137 14.078125 70.234375 C4.69368735 81.39036466 -6.79643108 88.13526418 -21.48046875 89.5859375 C-35.97513332 89.93520653 -48.44162314 85.62049207 -59.171875 75.734375 C-68.68425512 65.6918463 -73.47969521 52.89995425 -73.171875 39.125 C-71.96619644 25.18434164 -66.17275009 13.68414502 -55.921875 4.234375 C-52.74146872 1.84007884 -49.49585845 -0.02221844 -45.921875 -1.765625 C-45.138125 -2.178125 -44.354375 -2.590625 -43.546875 -3.015625 C-30.24824827 -9.00000703 -12.29430917 -7.42918148 0 0 Z " fill="#000000" transform="translate(280.921875,16.765625)"/>
<path d="M0 0 C0.67675781 0.57492188 1.35351562 1.14984375 2.05078125 1.7421875 C3.08138672 2.57363281 3.08138672 2.57363281 4.1328125 3.421875 C9.22363443 7.64638115 13.17233583 12.3972049 17.05078125 17.7421875 C13.42063504 21.4942416 9.64416749 24.87856869 5.55078125 28.1171875 C4.99519531 28.57996094 4.43960938 29.04273438 3.8671875 29.51953125 C-0.23413517 32.75233853 -0.23413517 32.75233853 -3.42578125 32.70703125 C-6.58439265 31.49932689 -9.71120909 30.25187977 -12.82421875 28.9296875 C-28.87407053 22.36554044 -46.51939938 18.58522979 -63.94921875 19.7421875 C-65.22410156 19.82210937 -66.49898438 19.90203125 -67.8125 19.984375 C-82.94912625 21.18299586 -98.44098394 24.7353028 -111.890625 31.95703125 C-114.53304886 32.96486274 -115.35355762 32.87570557 -117.94921875 31.7421875 C-120.18982756 30.18903821 -122.3176485 28.61899318 -124.44921875 26.9296875 C-125.01769531 26.49076172 -125.58617187 26.05183594 -126.171875 25.59960938 C-129.30518635 23.15330017 -132.20329034 20.62945046 -134.94921875 17.7421875 C-118.42417254 -2.8669956 -96.80900495 -16.93736336 -70.05126953 -20.06152344 C-44.885084 -22.41153658 -19.78098043 -16.27320145 0 0 Z " fill="#000000" transform="translate(314.94921875,135.2578125)"/>
</svg>
